<?xml version="1.0" encoding="UTF-8" standalone="no"?><!DOCTYPE svg PUBLIC "-//W3C//DTD SVG 1.1//EN" "http://www.w3.org/Graphics/SVG/1.1/DTD/svg11.dtd"><svg width="100%" height="100%" viewBox="0 0 1920 1080" version="1.1" xmlns="http://www.w3.org/2000/svg" xmlns:xlink="http://www.w3.org/1999/xlink" xml:space="preserve" xmlns:serif="http://www.serif.com/" style="fill-rule:evenodd;clip-rule:evenodd;stroke-linejoin:round;stroke-miterlimit:2;"><rect id="background" x="0" y="0" width="1920" height="1080" style="fill:none;"/><clipPath id="_clip1"><rect x="0" y="0" width="1920" height="1080"/></clipPath><g clip-path="url(#_clip1)"><rect x="0" y="0" width="1920" height="1054.38" style="fill:url(#_Linear2);"/><path d="M1920,1080l-1920,0l0,-1080l18.601,0l2.67,2.359c41.994,37.041 84.561,73.429 127.747,109.075c79.736,65.814 161.525,129.146 245.299,189.738c163.154,118.007 333.872,225.577 511.142,321.101c175.161,94.388 356.662,176.969 542.942,246.903c97.877,36.745 197.057,70.01 297.278,99.774c57.037,16.938 114.413,32.717 172.066,47.421l2.255,0.573l0,63.056Z" style="fill:#fff;"/></g><defs><linearGradient id="_Linear2" x1="0" y1="0" x2="1" y2="0" gradientUnits="userSpaceOnUse" gradientTransform="matrix(1938.78,0,0,4701.47,-18.7828,-4952.89)"><stop offset="0" style="stop-color:#00b7ff;stop-opacity:0.5"/><stop offset="0.5" style="stop-color:#0c70e8;stop-opacity:0.5"/><stop offset="1" style="stop-color:#0d3bff;stop-opacity:0.5"/></linearGradient></defs></svg>