<?xml version="1.0" encoding="UTF-8" standalone="no"?>
<!DOCTYPE svg PUBLIC "-//W3C//DTD SVG 1.1//EN" "http://www.w3.org/Graphics/SVG/1.1/DTD/svg11.dtd">
<svg width="100%" height="100%" viewBox="0 0 1920 1080" version="1.1" xmlns="http://www.w3.org/2000/svg" xmlns:xlink="http://www.w3.org/1999/xlink" xml:space="preserve" xmlns:serif="http://www.serif.com/" style="fill-rule:evenodd;clip-rule:evenodd;stroke-linejoin:round;stroke-miterlimit:2;">
    <g transform="matrix(1,0,0,1,0,-2371)">
        <g id="background" transform="matrix(1,0,0,1,0,2371)">
            <rect x="0" y="0" width="1920" height="1080" style="fill:none;"/>
            <clipPath id="_clip1">
                <rect x="0" y="0" width="1920" height="1080"/>
            </clipPath>
            <g clip-path="url(#_clip1)">
                <g transform="matrix(1,0,0,1,-3.41061e-13,-4777.04)">
                    <path d="M18.601,4777.04L1920,4777.04L1920,5793.98L1917.75,5793.41C1860.09,5778.7 1802.72,5762.93 1745.68,5745.99C1645.46,5716.22 1546.28,5682.96 1448.4,5646.21C1262.12,5576.28 1080.62,5493.7 905.459,5399.31C728.189,5303.79 557.471,5196.22 394.317,5078.21C310.543,5017.62 228.754,4954.28 149.018,4888.47C105.832,4852.82 63.265,4816.44 21.271,4779.4L18.601,4777.04Z" style="fill:url(#_Linear2);"/>
                </g>
                <g transform="matrix(1,0,0,1,0,-2371)">
                    <path d="M18.601,2371L21.271,2373.36C63.265,2410.4 105.832,2446.79 149.018,2482.43C228.754,2548.25 310.543,2611.58 394.317,2672.17C557.471,2790.18 728.189,2897.75 905.459,2993.27C1080.62,3087.66 1262.12,3170.24 1448.4,3240.18C1546.28,3276.92 1645.46,3310.19 1745.68,3339.95C1802.72,3356.89 1860.09,3372.67 1917.75,3387.37L1920,3387.94L1920,2371L1920,3451L0,3451L0,2371L18.601,2371Z" style="fill:white;"/>
                </g>
            </g>
        </g>
    </g>
    <defs>
        <linearGradient id="_Linear2" x1="0" y1="0" x2="1" y2="0" gradientUnits="userSpaceOnUse" gradientTransform="matrix(1920,0,0,4534.54,0,0)"><stop offset="0" style="stop-color:rgb(0,183,255);stop-opacity:0.75"/><stop offset="0.5" style="stop-color:rgb(12,112,232);stop-opacity:0.75"/><stop offset="1" style="stop-color:rgb(13,59,255);stop-opacity:0.75"/></linearGradient>
    </defs>
</svg>
