<?xml version="1.0" encoding="UTF-8" standalone="no"?>
<!DOCTYPE svg PUBLIC "-//W3C//DTD SVG 1.1//EN" "http://www.w3.org/Graphics/SVG/1.1/DTD/svg11.dtd">
<svg width="100%" height="100%" viewBox="0 0 1098 1494" version="1.1" xmlns="http://www.w3.org/2000/svg" xmlns:xlink="http://www.w3.org/1999/xlink" xml:space="preserve" xmlns:serif="http://www.serif.com/" style="fill-rule:evenodd;clip-rule:evenodd;stroke-linejoin:round;stroke-miterlimit:2;">
    <g transform="matrix(1,0,0,1,-817,-2990)">
        <g transform="matrix(1.34233,0,0,1.34233,-7275.51,3638.59)">
            <g transform="matrix(0.927999,0,0,0.927999,463.519,33.1533)">
                <g transform="matrix(0.669069,0.107675,-0.135215,0.699893,1950.15,-942.446)">
                    <rect x="6342.17" y="0" width="769.043" height="190.324" style="fill:url(#_Linear1);"/>
                    <clipPath id="_clip2">
                        <rect x="6342.17" y="0" width="769.043" height="190.324"/>
                    </clipPath>
                    <g clip-path="url(#_clip2)">
                        <g transform="matrix(1.03875,-0.422618,0.484378,0.906308,-327.156,2753.02)">
                            <path d="M7016.05,95.162L7111.22,190.324L6342.17,190.324L6342.17,0L7111.22,0L7016.05,95.162Z" style="fill-opacity:0.5;"/>
                        </g>
                    </g>
                </g>
                <g transform="matrix(0.669069,0.107675,-0.135215,0.699893,1950.35,-720.735)">
                    <rect x="6342.17" y="0" width="769.043" height="190.324" style="fill:url(#_Linear3);"/>
                    <clipPath id="_clip4">
                        <rect x="6342.17" y="0" width="769.043" height="190.324"/>
                    </clipPath>
                    <g clip-path="url(#_clip4)">
                        <g transform="matrix(1.03875,-0.422618,0.484378,0.906308,-326.806,2753.31)">
                            <rect x="6342.17" y="0" width="769.043" height="190.324" style="fill-opacity:0.5;"/>
                        </g>
                    </g>
                </g>
            </g>
            <g transform="matrix(0.377063,0,0,0.377063,5623.18,-762.646)">
                <path d="M2160,3691.37C2160,3392.22 1917.58,3149.7 1618.43,3149.7C1319.28,3149.7 1076.68,2909.34 1076.68,2610.19L1076.68,2088.35C1275.12,2145.17 1427.33,2311.14 1463.12,2517.26C1407.17,2512.18 1350.7,2515.7 1295.97,2527.55C1360.11,2755.22 1569.03,2921.9 1817.4,2922.16C1931.45,2922.28 2024.31,2829.3 2024.31,2715.26L2024.31,1427.03C2024.31,1427.03 1365.08,1427.03 1348.06,1427.03C1227.05,1372.71 1130.46,1275.72 1076.68,1155.64C1184.58,1155.64 2024.31,1155.64 2024.31,1155.64L2024.31,741.838L2295.69,741.838L2295.69,1155.64C2295.69,1155.64 3135.42,1155.65 3243.32,1155.65C3189.53,1275.73 3092.95,1372.71 2971.94,1427.03C2954.92,1427.03 2295.69,1427.03 2295.69,1427.03L2295.69,2715.26C2295.69,2829.3 2388.55,2922.28 2502.6,2922.16C2750.97,2921.9 2959.89,2755.22 3024.03,2527.55C2969.3,2515.7 2912.83,2512.18 2856.88,2517.26C2892.67,2311.14 3044.88,2145.17 3243.32,2088.35L3243.32,2610.19C3243.32,2909.34 3000.72,3149.7 2701.57,3149.7C2402.43,3149.7 2160,3392.22 2160,3691.37C2160,3691.37 2160,3691.36 2160,3691.36L2160,3691.37Z" style="fill:rgb(128,128,128);fill-rule:nonzero;"/>
                <clipPath id="_clip5">
                    <path d="M2160,3691.37C2160,3392.22 1917.58,3149.7 1618.43,3149.7C1319.28,3149.7 1076.68,2909.34 1076.68,2610.19L1076.68,2088.35C1275.12,2145.17 1427.33,2311.14 1463.12,2517.26C1407.17,2512.18 1350.7,2515.7 1295.97,2527.55C1360.11,2755.22 1569.03,2921.9 1817.4,2922.16C1931.45,2922.28 2024.31,2829.3 2024.31,2715.26L2024.31,1427.03C2024.31,1427.03 1365.08,1427.03 1348.06,1427.03C1227.05,1372.71 1130.46,1275.72 1076.68,1155.64C1184.58,1155.64 2024.31,1155.64 2024.31,1155.64L2024.31,741.838L2295.69,741.838L2295.69,1155.64C2295.69,1155.64 3135.42,1155.65 3243.32,1155.65C3189.53,1275.73 3092.95,1372.71 2971.94,1427.03C2954.92,1427.03 2295.69,1427.03 2295.69,1427.03L2295.69,2715.26C2295.69,2829.3 2388.55,2922.28 2502.6,2922.16C2750.97,2921.9 2959.89,2755.22 3024.03,2527.55C2969.3,2515.7 2912.83,2512.18 2856.88,2517.26C2892.67,2311.14 3044.88,2145.17 3243.32,2088.35L3243.32,2610.19C3243.32,2909.34 3000.72,3149.7 2701.57,3149.7C2402.43,3149.7 2160,3392.22 2160,3691.37C2160,3691.37 2160,3691.36 2160,3691.36L2160,3691.37Z" clip-rule="nonzero"/>
                </clipPath>
                <g clip-path="url(#_clip5)">
                    <g id="Silhouette" transform="matrix(1,0,0,1,-0.00526108,-3.69482e-13)">
                        <path d="M2295.69,741.838L2160,876.875L2160,1291.81L2295.69,1155.64L2295.69,741.838Z"/>
                        <g transform="matrix(-1,0,0,1,4320,0)">
                            <path d="M2024.31,1427.05L2024.31,1427.04L2160,1291.81L2160,3058.41L1963.67,2861.48C2001.11,2824 2024.31,2772.26 2024.31,2715.26L2024.31,1427.05Z" style="fill-rule:nonzero;"/>
                        </g>
                        <path d="M1076.68,2088.35C1275.12,2145.17 1427.33,2311.14 1463.12,2517.26C1407.17,2512.18 1350.7,2515.7 1295.97,2527.55C1360.11,2755.22 1569.03,2921.9 1817.4,2922.16C1874.77,2922.22 1926.77,2898.73 1964.29,2860.85L1964.88,2861.44C2035.8,2932.36 2111.3,3009.71 2160,3058.41C2008.53,3058.41 1914.21,3058.41 1750.99,3058.41C1503,3058.41 1293.7,2891.39 1229.56,2663.79C1228.51,2660.06 1227.5,2656.31 1226.53,2652.55C1215.3,2609.15 1209.33,2563.64 1209.33,2516.75L1209.33,2443.07C1209.33,2411.47 1206.6,2380.05 1201.39,2350.24C1184.05,2250.99 1129.39,2148.81 1076.68,2088.35Z" style="fill-rule:nonzero;"/>
                        <path d="M3243.32,2088.35L3243.32,2088.35L3243.32,2610.19C3243.32,2909.34 3000.72,3149.7 2701.57,3149.7C2402.43,3149.7 2160,3392.22 2160,3691.37C2160,3691.37 2160,3691.36 2160,3691.36C2160,3691.36 2160,3057.85 2160,3057.85L2160.56,3057.85L2160,3058.41C2311.47,3058.41 2405.79,3058.41 2569.01,3058.41C2817,3058.41 3026.3,2891.39 3090.44,2663.79C3091.49,2660.06 3092.5,2656.31 3093.47,2652.55C3104.7,2609.15 3110.67,2563.64 3110.67,2516.75L3110.67,2443.07C3110.67,2411.47 3113.4,2380.05 3118.61,2350.24C3135.95,2250.99 3190.61,2148.81 3243.32,2088.35Z" style="fill-rule:nonzero;"/>
                        <path d="M3155.57,1291.81C3105.17,1348.87 3042.74,1395.25 2971.94,1427.03C2954.92,1427.03 2295.69,1427.04 2295.69,1427.04L2295.69,1427.04L2295.69,1427.04L2160,1291.81L3155.57,1291.81Z" style="fill-rule:nonzero;"/>
                        <g transform="matrix(-1,0,0,1,4320,0)">
                            <path d="M3155.57,1291.81C3105.17,1348.87 3042.74,1395.25 2971.94,1427.03C2954.92,1427.03 2295.69,1427.04 2295.69,1427.04L2295.69,1427.04L2295.69,1427.04L2160,1291.81L3155.57,1291.81Z" style="fill-rule:nonzero;"/>
                        </g>
                    </g>
                </g>
            </g>
            <g transform="matrix(0.927999,0,0,0.927999,463.519,33.1533)">
                <g transform="matrix(0.752141,-0.18394,0.201536,0.686473,1359.01,909.345)">
                    <path d="M7016.05,95.162L7111.22,190.324L6342.17,190.324L6393.69,0L7111.22,0L7016.05,95.162Z" style="fill:url(#_Linear6);"/>
                </g>
                <g transform="matrix(-0.752141,0.18394,0.201536,0.686473,11478.5,-1121.62)">
                    <path d="M7016.05,95.162L7111.22,190.324L6393.43,190.324L6342.17,0L7111.22,0L7016.05,95.162Z" style="fill:url(#_Linear7);"/>
                </g>
                <g transform="matrix(0.752141,-0.18394,0.201536,0.686473,1359.41,1131.29)">
                    <path d="M7111.22,0L7060.22,190.324L6342.17,190.324L6393.16,0L7111.22,0Z" style="fill:url(#_Linear8);"/>
                </g>
            </g>
            <g transform="matrix(0.604972,-0.604972,0.604975,0.604975,2721.61,3297.33)">
                <path d="M5276.79,636.363C5276.52,633.139 5276.38,629.877 5276.38,626.583C5276.38,563.187 5327.85,511.717 5391.24,511.717C5454.64,511.717 5506.11,563.187 5506.11,626.583C5506.11,629.877 5505.97,633.139 5505.7,636.363L5505.86,636.363L5505.86,636.796C5509.16,636.509 5512.51,636.363 5515.89,636.363C5579.29,636.363 5630.76,687.833 5630.76,751.23C5630.76,814.626 5579.29,866.096 5515.89,866.096C5512.51,866.096 5509.16,865.95 5505.86,865.663L5505.86,866.096L5276.38,866.096L5276.38,636.363L5276.79,636.363Z" style="fill:rgb(223,64,32);"/>
            </g>
        </g>
    </g>
    <defs>
        <linearGradient id="_Linear1" x1="0" y1="0" x2="1" y2="0" gradientUnits="userSpaceOnUse" gradientTransform="matrix(255.55,171.791,-218.193,300.136,6496.12,44.7601)"><stop offset="0" style="stop-color:rgb(112,32,16);stop-opacity:1"/><stop offset="1" style="stop-color:rgb(51,9,0);stop-opacity:1"/></linearGradient>
        <linearGradient id="_Linear3" x1="0" y1="0" x2="1" y2="0" gradientUnits="userSpaceOnUse" gradientTransform="matrix(255.975,172.077,-218.556,300.635,6494.62,44.9813)"><stop offset="0" style="stop-color:rgb(112,32,16);stop-opacity:1"/><stop offset="1" style="stop-color:rgb(51,9,0);stop-opacity:1"/></linearGradient>
        <linearGradient id="_Linear6" x1="0" y1="0" x2="1" y2="0" gradientUnits="userSpaceOnUse" gradientTransform="matrix(127.367,245.857,-294.507,188.443,6568.05,-33.9541)"><stop offset="0" style="stop-color:rgb(223,64,32);stop-opacity:1"/><stop offset="1" style="stop-color:rgb(153,26,0);stop-opacity:1"/></linearGradient>
        <linearGradient id="_Linear7" x1="0" y1="0" x2="1" y2="0" gradientUnits="userSpaceOnUse" gradientTransform="matrix(-117.68,227.158,232.551,148.8,6875.51,-18.6269)"><stop offset="0" style="stop-color:rgb(223,64,32);stop-opacity:1"/><stop offset="1" style="stop-color:rgb(153,26,0);stop-opacity:1"/></linearGradient>
        <linearGradient id="_Linear8" x1="0" y1="0" x2="1" y2="0" gradientUnits="userSpaceOnUse" gradientTransform="matrix(119.732,231.12,-276.853,177.147,6575.28,-19.6821)"><stop offset="0" style="stop-color:rgb(223,64,32);stop-opacity:1"/><stop offset="1" style="stop-color:rgb(153,26,0);stop-opacity:1"/></linearGradient>
    </defs>
</svg>
