<?xml version="1.0" encoding="UTF-8" standalone="no"?>
<!DOCTYPE svg PUBLIC "-//W3C//DTD SVG 1.1//EN" "http://www.w3.org/Graphics/SVG/1.1/DTD/svg11.dtd">
<svg width="100%" height="100%" viewBox="0 0 1081 1081" version="1.1" xmlns="http://www.w3.org/2000/svg" xmlns:xlink="http://www.w3.org/1999/xlink" xml:space="preserve" xmlns:serif="http://www.serif.com/" style="fill-rule:evenodd;clip-rule:evenodd;stroke-linejoin:round;stroke-miterlimit:2;">
    <g transform="matrix(1,0,0,1,-5476,-2429)">
        <g transform="matrix(1,0,0,1,2201.08,0)">
            <g id="mbackground" transform="matrix(0.5625,0,0,1,2166.84,2429.61)">
                <rect x="1970" y="0" width="1920" height="1080" style="fill:none;"/>
                <clipPath id="_clip1">
                    <rect x="1970" y="0" width="1920" height="1080"/>
                </clipPath>
                <g clip-path="url(#_clip1)">
                    <g transform="matrix(2.87644,0,0,1,-4289.88,84.7632)">
                        <path d="M2176.26,-84.763L2843.74,-84.763L2843.74,397.445C2751.86,469.826 2635.93,513.028 2510,513.028C2384.07,513.028 2268.14,469.826 2176.26,397.445L2176.26,-84.763Z" style="fill:url(#_Linear2);"/>
                    </g>
                    <g transform="matrix(1.77778,0,0,1,-7765.2,-2429.61)">
                        <path d="M5476.05,2911.82C5624.73,2984.2 5812.29,3027.4 6016.05,3027.4C6219.81,3027.4 6407.38,2984.2 6556.05,2911.82L6556.05,3509.61L5476.05,3509.61L5476.05,2911.82Z" style="fill:white;"/>
                    </g>
                </g>
            </g>
        </g>
    </g>
    <defs>
        <linearGradient id="_Linear2" x1="0" y1="0" x2="1" y2="0" gradientUnits="userSpaceOnUse" gradientTransform="matrix(667.491,-1.13687e-13,4.34263e-14,667.491,2176.25,-24.7632)"><stop offset="0" style="stop-color:rgb(0,183,255);stop-opacity:0.75"/><stop offset="0.5" style="stop-color:rgb(12,112,232);stop-opacity:0.75"/><stop offset="1" style="stop-color:rgb(13,59,255);stop-opacity:0.75"/></linearGradient>
    </defs>
</svg>
