<?xml version="1.0" encoding="UTF-8" standalone="no"?>
<!DOCTYPE svg PUBLIC "-//W3C//DTD SVG 1.1//EN" "http://www.w3.org/Graphics/SVG/1.1/DTD/svg11.dtd">
<svg width="100%" height="100%" viewBox="0 0 1080 1080" version="1.1" xmlns="http://www.w3.org/2000/svg" xmlns:xlink="http://www.w3.org/1999/xlink" xml:space="preserve" xmlns:serif="http://www.serif.com/" style="fill-rule:evenodd;clip-rule:evenodd;stroke-linejoin:round;stroke-miterlimit:2;">
    <g transform="matrix(1,0,0,1,-1970,0)">
        <g id="mbackground" transform="matrix(0.5625,0,0,1,861.875,0)">
            <rect x="1970" y="0" width="1920" height="1080" style="fill:none;"/>
            <clipPath id="_clip1">
                <rect x="1970" y="0" width="1920" height="1080"/>
            </clipPath>
            <g clip-path="url(#_clip1)">
                <g transform="matrix(2.89508,0,0,1.27816,-4939.99,-300.409)">
                    <rect x="2386.81" y="235.033" width="663.194" height="844.967" style="fill:white;"/>
                </g>
                <g transform="matrix(2.89508,0,0,1.27816,-4939.99,-300.409)">
                    <rect x="2386.81" y="235.033" width="663.194" height="844.967" style="fill:white;"/>
                </g>
                <g transform="matrix(2.87644,0,0,1,-4289.88,84.7632)">
                    <path d="M2176.26,-84.763L2843.74,-84.763L2843.74,397.445C2751.86,469.826 2635.93,513.028 2510,513.028C2384.07,513.028 2268.14,469.826 2176.26,397.445L2176.26,-84.763Z" style="fill:url(#_Linear2);"/>
                </g>
            </g>
        </g>
    </g>
    <defs>
        <linearGradient id="_Linear2" x1="0" y1="0" x2="1" y2="0" gradientUnits="userSpaceOnUse" gradientTransform="matrix(667.491,-1.13687e-13,4.34263e-14,667.491,2176.25,-24.7632)"><stop offset="0" style="stop-color:rgb(0,183,255);stop-opacity:1"/><stop offset="0.5" style="stop-color:rgb(12,112,232);stop-opacity:1"/><stop offset="1" style="stop-color:rgb(13,59,255);stop-opacity:1"/></linearGradient>
    </defs>
</svg>
