<?xml version="1.0" encoding="UTF-8" standalone="no"?><!DOCTYPE svg PUBLIC "-//W3C//DTD SVG 1.1//EN" "http://www.w3.org/Graphics/SVG/1.1/DTD/svg11.dtd"><svg width="100%" height="100%" viewBox="0 0 128 128" version="1.1" xmlns="http://www.w3.org/2000/svg" xmlns:xlink="http://www.w3.org/1999/xlink" xml:space="preserve" xmlns:serif="http://www.serif.com/" style="fill-rule:evenodd;clip-rule:evenodd;stroke-linejoin:round;stroke-miterlimit:2;"><rect id="Favicon" x="0" y="0" width="128" height="128" style="fill:none;"/><clipPath id="_clip1"><rect x="0" y="0" width="128" height="128"/></clipPath><g clip-path="url(#_clip1)"><path d="M41.686,110.623c15.914,-10.735 28.657,-24.371 38.232,-40.899c9.166,-15.822 14.797,-33.286 16.888,-52.381c0.419,0.035 9.983,-0.861 14.598,-1.016c-2.057,22.04 -8.383,42.098 -18.965,60.188c-10.159,17.369 -23.523,31.828 -40.092,43.354l-0.195,0.136c-4.093,2.863 -8.381,5.532 -12.857,7.995c-3.535,-2.9 -6.825,-6.134 -9.888,-9.676l-0.182,-0.221l0.395,-0.203c4.207,-2.255 8.23,-4.678 12.066,-7.277Zm56.262,-109.748c4.563,-0.496 9.307,-0.794 14.227,-0.875c-0.002,4.32 -0.154,8.571 -0.474,12.732c-5.014,0.151 -9.802,0.497 -14.333,1.032l-0.215,0.026c-18.924,2.268 -33.936,7.897 -45.037,16.884c-14.856,12.026 -22.284,27.236 -22.284,45.629c0,12.806 3.175,23.328 9.53,31.564c-1.542,1.035 -3.104,2.04 -4.688,3.01c-2.759,1.687 -7.542,4.313 -7.678,4.424c-7.447,-10.084 -11.171,-23.086 -11.171,-38.998c0,-13.866 3.678,-26.599 11.036,-38.201c7.357,-11.602 18.605,-20.87 33.744,-27.802c10.556,-4.834 22.935,-7.983 37.126,-9.401l0.217,-0.024Z" style="fill:url(#_Linear2);"/></g><defs><linearGradient id="_Linear2" x1="0" y1="0" x2="1" y2="0" gradientUnits="userSpaceOnUse" gradientTransform="matrix(95.5795,0,0,95.5795,15.8246,64)"><stop offset="0" style="stop-color:#00b7ff;stop-opacity:1"/><stop offset="0.5" style="stop-color:#0c70e8;stop-opacity:1"/><stop offset="1" style="stop-color:#0d3bff;stop-opacity:1"/></linearGradient></defs></svg>