<?xml version="1.0" encoding="UTF-8" standalone="no"?><!DOCTYPE svg PUBLIC "-//W3C//DTD SVG 1.1//EN" "http://www.w3.org/Graphics/SVG/1.1/DTD/svg11.dtd"><svg width="100%" height="100%" viewBox="0 0 900 500" version="1.1" xmlns="http://www.w3.org/2000/svg" xmlns:xlink="http://www.w3.org/1999/xlink" xml:space="preserve" xmlns:serif="http://www.serif.com/" style="fill-rule:evenodd;clip-rule:evenodd;stroke-linejoin:round;stroke-miterlimit:2;"><rect id="Icon" x="0" y="0" width="900" height="500" style="fill:none;"/><path d="M72.172,106.347l116.974,0c30.373,0 57.188,6.089 80.446,18.265c23.258,12.176 41.317,29.141 54.177,50.894c12.861,21.753 19.291,46.584 19.291,74.494c0,27.91 -6.43,52.741 -19.291,74.494c-12.86,21.753 -30.919,38.718 -54.177,50.894c-23.258,12.176 -50.073,18.265 -80.446,18.265l-116.974,0l0,-287.306Zm115.333,261.038c25.173,0 47.2,-4.994 66.08,-14.981c18.88,-9.987 33.519,-23.806 43.916,-41.454c10.398,-17.649 15.597,-37.966 15.597,-60.95c0,-22.984 -5.199,-43.301 -15.597,-60.95c-10.397,-17.648 -25.036,-31.467 -43.916,-41.454c-18.88,-9.987 -40.907,-14.981 -66.08,-14.981l-84.961,0l0,234.77l84.961,0Z" style="fill-rule:nonzero;"/><path d="M724.241,393.653c-20.983,0 -41.092,-3.363 -60.326,-10.088c-19.235,-6.726 -34.098,-15.603 -44.589,-26.633l11.702,-23c10.222,10.222 23.808,18.494 40.755,24.816c16.948,6.322 34.434,9.483 52.458,9.483c25.287,0 44.252,-4.641 56.896,-13.921c12.643,-9.281 18.965,-21.32 18.965,-36.115c0,-11.299 -3.43,-20.311 -10.289,-27.036c-6.86,-6.725 -15.267,-11.904 -25.22,-15.536c-9.954,-3.631 -23.808,-7.599 -41.563,-11.903c-21.252,-5.381 -38.2,-10.559 -50.843,-15.536c-12.644,-4.977 -23.471,-12.576 -32.483,-22.799c-9.012,-10.222 -13.518,-24.076 -13.518,-41.562c0,-14.258 3.766,-27.238 11.298,-38.94c7.533,-11.702 19.1,-21.05 34.703,-28.044c15.603,-6.994 34.971,-10.492 58.107,-10.492c16.14,0 31.945,2.22 47.413,6.658c15.468,4.439 28.852,10.559 40.15,18.361l-10.088,23.807c-11.836,-7.801 -24.48,-13.652 -37.931,-17.553c-13.45,-3.901 -26.632,-5.851 -39.544,-5.851c-24.75,0 -43.379,4.775 -55.888,14.325c-12.509,9.55 -18.763,21.857 -18.763,36.922c0,11.298 3.43,20.378 10.289,27.237c6.86,6.86 15.469,12.106 25.826,15.738c10.357,3.631 24.278,7.599 41.764,11.903c20.714,5.112 37.46,10.156 50.238,15.132c12.778,4.977 23.606,12.509 32.483,22.597c8.877,10.088 13.316,23.741 13.316,40.958c0,14.257 -3.833,27.237 -11.5,38.939c-7.667,11.702 -19.436,20.983 -35.308,27.843c-15.872,6.86 -35.375,10.29 -58.51,10.29Z" style="fill-rule:nonzero;"/><path d="M431.108,354.648c35.719,-24.096 64.322,-54.701 85.814,-91.8c20.574,-35.515 33.214,-74.712 37.906,-117.572c0.942,0.077 22.408,-1.933 32.767,-2.281c-4.617,49.47 -18.817,94.491 -42.568,135.096c-22.803,38.986 -52.799,71.441 -89.991,97.311l-0.438,0.305c-9.185,6.426 -18.81,12.417 -28.857,17.946c-7.936,-6.51 -15.319,-13.769 -22.194,-21.718l-0.409,-0.498l0.885,-0.454c9.444,-5.062 18.474,-10.501 27.085,-16.335Zm126.284,-246.336c10.242,-1.114 20.891,-1.783 31.934,-1.965c-0.004,9.698 -0.346,19.239 -1.066,28.578c-11.254,0.339 -21.999,1.115 -32.17,2.317l-0.484,0.058c-42.476,5.091 -76.171,17.726 -101.088,37.897c-33.345,26.994 -50.018,61.133 -50.018,102.418c0,28.744 7.126,52.362 21.392,70.847c-3.462,2.324 -6.968,4.58 -10.524,6.756c-6.192,3.788 -16.928,9.681 -17.233,9.93c-16.716,-22.634 -25.075,-51.818 -25.075,-87.533c0,-31.122 8.257,-59.704 24.771,-85.746c16.514,-26.041 41.761,-46.842 75.742,-62.403c23.694,-10.851 51.48,-17.918 83.331,-21.101l0.488,-0.053Z" style="fill:url(#_Linear1);"/><defs><linearGradient id="_Linear1" x1="0" y1="0" x2="1" y2="0" gradientUnits="userSpaceOnUse" gradientTransform="matrix(216.266,0,0,287.305,373.06,250)"><stop offset="0" style="stop-color:#00b7ff;stop-opacity:1"/><stop offset="0.5" style="stop-color:#0c70e8;stop-opacity:1"/><stop offset="1" style="stop-color:#0d3bff;stop-opacity:1"/></linearGradient></defs></svg>