<?xml version="1.0" encoding="UTF-8" standalone="no"?><!DOCTYPE svg PUBLIC "-//W3C//DTD SVG 1.1//EN" "http://www.w3.org/Graphics/SVG/1.1/DTD/svg11.dtd"><svg width="100%" height="100%" viewBox="0 0 3649 501" version="1.1" xmlns="http://www.w3.org/2000/svg" xmlns:xlink="http://www.w3.org/1999/xlink" xml:space="preserve" xmlns:serif="http://www.serif.com/" style="fill-rule:evenodd;clip-rule:evenodd;stroke-linejoin:round;stroke-miterlimit:2;"><rect id="Logo-White" serif:id="Logo White" x="0.078" y="0.092" width="3648.91" height="500" style="fill:none;"/><g><path d="M67.25,106.439l116.975,0c30.372,0 57.187,6.088 80.445,18.265c23.258,12.176 41.317,29.141 54.178,50.894c12.86,21.753 19.29,46.584 19.29,74.494c0,27.909 -6.43,52.741 -19.29,74.494c-12.861,21.753 -30.92,38.718 -54.178,50.894c-23.258,12.176 -50.073,18.264 -80.445,18.264l-116.975,0l0,-287.305Zm115.333,261.038c25.173,0 47.2,-4.994 66.08,-14.981c18.88,-9.988 33.519,-23.806 43.917,-41.454c10.397,-17.649 15.596,-37.966 15.596,-60.95c0,-22.985 -5.199,-43.301 -15.596,-60.95c-10.398,-17.649 -25.037,-31.467 -43.917,-41.454c-18.88,-9.987 -40.907,-14.981 -66.08,-14.981l-84.96,0l0,234.77l84.96,0Z" style="fill:#fff;fill-rule:nonzero;"/><path d="M609.436,367.477l0,26.267l-203.165,0l0,-287.305l197.009,0l0,26.268l-166.637,0l0,102.199l148.578,0l0,25.857l-148.578,0l0,106.714l172.793,0Z" style="fill:#fff;fill-rule:nonzero;"/><path d="M877.041,393.744l-65.67,-92.348c-7.388,0.821 -15.049,1.232 -22.985,1.232l-77.161,0l0,91.116l-30.373,0l0,-287.305l107.534,0c36.666,0 65.397,8.756 86.192,26.268c20.795,17.512 31.193,41.591 31.193,72.237c0,22.437 -5.678,41.386 -17.033,56.845c-11.355,15.46 -27.568,26.61 -48.637,33.451l70.185,98.504l-33.245,0Zm-89.475,-116.974c28.456,0 50.21,-6.293 65.259,-18.88c15.049,-12.587 22.574,-30.235 22.574,-52.946c0,-23.258 -7.525,-41.112 -22.574,-53.562c-15.049,-12.45 -36.803,-18.675 -65.259,-18.675l-76.341,0l0,144.063l76.341,0Z" style="fill:#fff;fill-rule:nonzero;"/><path d="M1173.79,393.744l-65.67,-92.348c-7.388,0.821 -15.049,1.232 -22.984,1.232l-77.162,0l0,91.116l-30.373,0l0,-287.305l107.535,0c36.665,0 65.396,8.756 86.191,26.268c20.796,17.512 31.193,41.591 31.193,72.237c0,22.437 -5.677,41.386 -17.033,56.845c-11.355,15.46 -27.567,26.61 -48.636,33.451l70.184,98.504l-33.245,0Zm-89.475,-116.974c28.457,0 50.21,-6.293 65.259,-18.88c15.049,-12.587 22.574,-30.235 22.574,-52.946c0,-23.258 -7.525,-41.112 -22.574,-53.562c-15.049,-12.45 -36.802,-18.675 -65.259,-18.675l-76.341,0l0,144.063l76.341,0Z" style="fill:#fff;fill-rule:nonzero;"/><rect x="1274.34" y="106.439" width="30.372" height="287.305" style="fill:#fff;fill-rule:nonzero;"/><path d="M1523.07,396.207c-28.457,0 -54.109,-6.293 -76.957,-18.88c-22.847,-12.587 -40.77,-30.03 -53.767,-52.331c-12.997,-22.3 -19.496,-47.268 -19.496,-74.904c0,-27.636 6.499,-52.604 19.496,-74.905c12.997,-22.3 30.988,-39.744 53.972,-52.33c22.985,-12.587 48.705,-18.88 77.162,-18.88c21.343,0 41.044,3.557 59.103,10.671c18.059,7.114 33.382,17.512 45.969,31.193l-19.291,19.291c-22.437,-22.711 -50.757,-34.067 -84.96,-34.067c-22.711,0 -43.369,5.199 -61.976,15.597c-18.606,10.398 -33.177,24.626 -43.711,42.685c-10.535,18.059 -15.802,38.308 -15.802,60.745c0,22.437 5.267,42.685 15.802,60.744c10.534,18.06 25.105,32.288 43.711,42.686c18.607,10.397 39.265,15.596 61.976,15.596c34.477,0 62.797,-11.492 84.96,-34.476l19.291,19.29c-12.587,13.681 -27.978,24.147 -46.174,31.398c-18.196,7.252 -37.965,10.877 -59.308,10.877Z" style="fill:#fff;fill-rule:nonzero;"/><path d="M1782.46,258.711l-58.692,59.513l0,75.52l-30.372,0l0,-287.305l30.372,0l0,173.615l168.689,-173.615l34.887,0l-124.362,130.108l132.982,157.197l-36.119,0l-117.385,-135.033Z" style="fill:#fff;fill-rule:nonzero;"/></g><g><path d="M2317.15,393.744c-20.983,0 -41.092,-3.362 -60.326,-10.088c-19.235,-6.725 -34.098,-15.602 -44.589,-26.632l11.702,-23c10.222,10.222 23.807,18.494 40.755,24.816c16.948,6.322 34.434,9.483 52.458,9.483c25.287,0 44.252,-4.641 56.896,-13.922c12.643,-9.281 18.965,-21.319 18.965,-36.115c0,-11.298 -3.43,-20.31 -10.29,-27.035c-6.86,-6.726 -15.266,-11.904 -25.22,-15.536c-9.953,-3.631 -23.807,-7.599 -41.562,-11.904c-21.252,-5.38 -38.2,-10.558 -50.843,-15.535c-12.644,-4.977 -23.472,-12.576 -32.484,-22.799c-9.012,-10.222 -13.517,-24.076 -13.517,-41.562c0,-14.258 3.766,-27.238 11.298,-38.94c7.532,-11.702 19.1,-21.05 34.703,-28.044c15.602,-6.995 34.971,-10.492 58.106,-10.492c16.141,0 31.946,2.22 47.414,6.658c15.468,4.439 28.851,10.559 40.15,18.36l-10.088,23.808c-11.837,-7.801 -24.48,-13.652 -37.931,-17.553c-13.45,-3.901 -26.632,-5.851 -39.545,-5.851c-24.749,0 -43.378,4.775 -55.887,14.325c-12.509,9.55 -18.764,21.857 -18.764,36.922c0,11.298 3.43,20.377 10.29,27.237c6.86,6.86 15.468,12.106 25.825,15.737c10.357,3.632 24.279,7.6 41.764,11.904c20.714,5.112 37.46,10.155 50.239,15.132c12.778,4.977 23.605,12.509 32.483,22.597c8.877,10.088 13.316,23.741 13.316,40.957c0,14.258 -3.834,27.238 -11.5,38.94c-7.667,11.702 -19.437,20.983 -35.308,27.843c-15.872,6.86 -35.375,10.289 -58.51,10.289Z" style="fill:#fff;fill-rule:nonzero;"/><path d="M2664.58,315.865l-157.372,0l-33.896,75.458l-31.071,0l129.126,-282.463l29.457,0l129.126,282.463l-31.474,0l-33.896,-75.458Zm-10.895,-24.211l-67.791,-151.723l-67.791,151.723l135.582,0Z" style="fill:#fff;fill-rule:nonzero;"/><path d="M2976.5,365.498l0,25.825l-199.742,0l0,-282.463l193.689,0l0,25.826l-163.828,0l0,100.476l146.073,0l0,25.421l-146.073,0l0,104.915l169.881,0Z" style="fill:#fff;fill-rule:nonzero;"/><path d="M3282.77,108.86l0,282.463l-24.614,0l-181.584,-229.198l0,229.198l-29.86,0l0,-282.463l24.615,0l181.987,229.199l0,-229.199l29.456,0Z" style="fill:#fff;fill-rule:nonzero;"/><path d="M3578.55,365.498l0,25.825l-231.619,0l0,-20.579l187.232,-236.058l-184.408,0l0,-25.826l223.953,0l0,20.58l-186.829,236.058l191.671,0Z" style="fill:#fff;fill-rule:nonzero;"/></g><path d="M2024.01,354.74c35.719,-24.096 64.322,-54.702 85.814,-91.8c20.573,-35.515 33.214,-74.712 37.906,-117.572c0.941,0.077 22.407,-1.933 32.767,-2.281c-4.617,49.47 -18.818,94.491 -42.568,135.096c-22.803,38.986 -52.8,71.441 -89.991,97.311l-0.438,0.304c-9.186,6.427 -18.81,12.418 -28.857,17.946c-7.936,-6.509 -15.319,-13.768 -22.194,-21.717l-0.409,-0.498l0.885,-0.455c9.444,-5.061 18.473,-10.5 27.085,-16.334Zm126.283,-246.337c10.243,-1.113 20.891,-1.782 31.935,-1.964c-0.005,9.697 -0.347,19.239 -1.066,28.578c-11.254,0.339 -21.999,1.115 -32.17,2.317l-0.484,0.058c-42.476,5.091 -76.171,17.725 -101.088,37.897c-33.346,26.994 -50.018,61.133 -50.018,102.418c0,28.744 7.126,52.361 21.392,70.847c-3.462,2.324 -6.968,4.58 -10.525,6.756c-6.191,3.787 -16.927,9.681 -17.232,9.93c-16.716,-22.634 -25.075,-51.818 -25.075,-87.533c0,-31.123 8.256,-59.704 24.77,-85.746c16.514,-26.041 41.762,-46.842 75.742,-62.403c23.694,-10.851 51.48,-17.919 83.332,-21.101l0.487,-0.054Z" style="fill:#fff;"/></svg>