<?xml version="1.0" encoding="UTF-8" standalone="no"?>
<!DOCTYPE svg PUBLIC "-//W3C//DTD SVG 1.1//EN" "http://www.w3.org/Graphics/SVG/1.1/DTD/svg11.dtd">
<svg width="100%" height="100%" viewBox="0 0 3649 500" version="1.1" xmlns="http://www.w3.org/2000/svg" xmlns:xlink="http://www.w3.org/1999/xlink" xml:space="preserve" xmlns:serif="http://www.serif.com/" style="fill-rule:evenodd;clip-rule:evenodd;stroke-linejoin:round;stroke-miterlimit:2;">
    <g transform="matrix(1,0,0,1,-1628,-328)">
        <g id="Logo" transform="matrix(4.01545,0,0,0.550226,423.444,1136.52)">
            <rect x="300" y="-1469.44" width="908.718" height="908.718" style="fill:none;"/>
            <g transform="matrix(8.51786,0,0,62.1618,-3499,-24128.3)">
                <g transform="matrix(12,0,0,12,446.601,376.024)">
                    <path d="M0.114,-0.7L0.399,-0.7C0.473,-0.7 0.538,-0.685 0.595,-0.656C0.652,-0.626 0.696,-0.584 0.727,-0.532C0.758,-0.478 0.774,-0.418 0.774,-0.35C0.774,-0.282 0.758,-0.222 0.727,-0.169C0.696,-0.116 0.652,-0.074 0.595,-0.045C0.538,-0.015 0.473,0 0.399,0L0.114,0L0.114,-0.7ZM0.395,-0.064C0.456,-0.064 0.51,-0.076 0.556,-0.101C0.602,-0.125 0.638,-0.159 0.663,-0.202C0.688,-0.245 0.701,-0.294 0.701,-0.35C0.701,-0.406 0.688,-0.456 0.663,-0.499C0.638,-0.542 0.602,-0.575 0.556,-0.6C0.51,-0.624 0.456,-0.636 0.395,-0.636L0.188,-0.636L0.188,-0.064L0.395,-0.064Z" style="fill-rule:nonzero;"/>
                </g>
                <g transform="matrix(12,0,0,12,456.513,376.024)">
                    <path d="M0.609,-0.064L0.609,0L0.114,0L0.114,-0.7L0.594,-0.7L0.594,-0.636L0.188,-0.636L0.188,-0.387L0.55,-0.387L0.55,-0.324L0.188,-0.324L0.188,-0.064L0.609,-0.064Z" style="fill-rule:nonzero;"/>
                </g>
                <g transform="matrix(12,0,0,12,464.541,376.024)">
                    <path d="M0.592,0L0.432,-0.225C0.414,-0.223 0.395,-0.222 0.376,-0.222L0.188,-0.222L0.188,0L0.114,0L0.114,-0.7L0.376,-0.7C0.465,-0.7 0.535,-0.679 0.586,-0.636C0.637,-0.593 0.662,-0.535 0.662,-0.46C0.662,-0.405 0.648,-0.359 0.621,-0.322C0.593,-0.284 0.553,-0.257 0.502,-0.24L0.673,0L0.592,0ZM0.374,-0.285C0.443,-0.285 0.496,-0.3 0.533,-0.331C0.57,-0.362 0.588,-0.405 0.588,-0.46C0.588,-0.517 0.57,-0.56 0.533,-0.591C0.496,-0.621 0.443,-0.636 0.374,-0.636L0.188,-0.636L0.188,-0.285L0.374,-0.285Z" style="fill-rule:nonzero;"/>
                </g>
                <g transform="matrix(12,0,0,12,473.217,376.024)">
                    <path d="M0.592,0L0.432,-0.225C0.414,-0.223 0.395,-0.222 0.376,-0.222L0.188,-0.222L0.188,0L0.114,0L0.114,-0.7L0.376,-0.7C0.465,-0.7 0.535,-0.679 0.586,-0.636C0.637,-0.593 0.662,-0.535 0.662,-0.46C0.662,-0.405 0.648,-0.359 0.621,-0.322C0.593,-0.284 0.553,-0.257 0.502,-0.24L0.673,0L0.592,0ZM0.374,-0.285C0.443,-0.285 0.496,-0.3 0.533,-0.331C0.57,-0.362 0.588,-0.405 0.588,-0.46C0.588,-0.517 0.57,-0.56 0.533,-0.591C0.496,-0.621 0.443,-0.636 0.374,-0.636L0.188,-0.636L0.188,-0.285L0.374,-0.285Z" style="fill-rule:nonzero;"/>
                </g>
                <g transform="matrix(12,0,0,12,481.893,376.024)">
                    <rect x="0.114" y="-0.7" width="0.074" height="0.7" style="fill-rule:nonzero;"/>
                </g>
                <g transform="matrix(12,0,0,12,485.517,376.024)">
                    <path d="M0.418,0.006C0.349,0.006 0.286,-0.009 0.231,-0.04C0.175,-0.071 0.131,-0.113 0.1,-0.168C0.068,-0.222 0.052,-0.283 0.052,-0.35C0.052,-0.417 0.068,-0.478 0.1,-0.533C0.131,-0.587 0.175,-0.629 0.231,-0.66C0.287,-0.691 0.35,-0.706 0.419,-0.706C0.471,-0.706 0.519,-0.697 0.563,-0.68C0.607,-0.663 0.644,-0.637 0.675,-0.604L0.628,-0.557C0.573,-0.612 0.504,-0.64 0.421,-0.64C0.366,-0.64 0.315,-0.627 0.27,-0.602C0.225,-0.577 0.189,-0.542 0.164,-0.498C0.138,-0.454 0.125,-0.405 0.125,-0.35C0.125,-0.295 0.138,-0.246 0.164,-0.202C0.189,-0.158 0.225,-0.123 0.27,-0.098C0.315,-0.073 0.366,-0.06 0.421,-0.06C0.505,-0.06 0.574,-0.088 0.628,-0.144L0.675,-0.097C0.644,-0.064 0.607,-0.038 0.563,-0.021C0.518,-0.003 0.47,0.006 0.418,0.006Z" style="fill-rule:nonzero;"/>
                </g>
                <g transform="matrix(12,0,0,12,494.145,376.024)">
                    <path d="M0.331,-0.329L0.188,-0.184L0.188,0L0.114,0L0.114,-0.7L0.188,-0.7L0.188,-0.277L0.599,-0.7L0.684,-0.7L0.381,-0.383L0.705,0L0.617,0L0.331,-0.329Z" style="fill-rule:nonzero;"/>
                </g>
            </g>
            <g transform="matrix(8.3743,0,0,61.1141,-2893.78,-23738.8)">
                <g transform="matrix(12,0,0,12,446.601,376.024)">
                    <path d="M0.307,0.006C0.255,0.006 0.205,-0.002 0.158,-0.019C0.11,-0.036 0.073,-0.058 0.047,-0.085L0.076,-0.142C0.101,-0.117 0.135,-0.096 0.177,-0.081C0.219,-0.065 0.262,-0.057 0.307,-0.057C0.37,-0.057 0.417,-0.069 0.448,-0.092C0.479,-0.115 0.495,-0.144 0.495,-0.181C0.495,-0.209 0.487,-0.231 0.47,-0.248C0.452,-0.265 0.432,-0.278 0.407,-0.287C0.382,-0.296 0.348,-0.305 0.304,-0.316C0.251,-0.329 0.209,-0.342 0.178,-0.355C0.147,-0.367 0.12,-0.386 0.098,-0.411C0.075,-0.436 0.064,-0.471 0.064,-0.514C0.064,-0.549 0.073,-0.582 0.092,-0.611C0.111,-0.64 0.139,-0.663 0.178,-0.68C0.217,-0.697 0.265,-0.706 0.322,-0.706C0.362,-0.706 0.401,-0.7 0.44,-0.69C0.478,-0.679 0.511,-0.663 0.539,-0.644L0.514,-0.585C0.485,-0.604 0.453,-0.619 0.42,-0.629C0.387,-0.638 0.354,-0.643 0.322,-0.643C0.261,-0.643 0.215,-0.631 0.184,-0.608C0.153,-0.584 0.137,-0.553 0.137,-0.516C0.137,-0.488 0.146,-0.466 0.163,-0.449C0.18,-0.432 0.201,-0.419 0.227,-0.41C0.252,-0.401 0.287,-0.391 0.33,-0.38C0.381,-0.367 0.423,-0.355 0.455,-0.343C0.486,-0.33 0.513,-0.312 0.535,-0.287C0.557,-0.262 0.568,-0.228 0.568,-0.185C0.568,-0.15 0.559,-0.118 0.54,-0.089C0.521,-0.059 0.491,-0.037 0.452,-0.02C0.413,-0.003 0.364,0.006 0.307,0.006Z" style="fill-rule:nonzero;"/>
                </g>
                <g transform="matrix(12,0,0,12,453.981,376.024)">
                    <path d="M0.553,-0.187L0.163,-0.187L0.079,0L0.002,0L0.322,-0.7L0.395,-0.7L0.715,0L0.637,0L0.553,-0.187ZM0.526,-0.247L0.358,-0.623L0.19,-0.247L0.526,-0.247Z" style="fill-rule:nonzero;"/>
                </g>
                <g transform="matrix(12,0,0,12,462.585,376.024)">
                    <path d="M0.609,-0.064L0.609,0L0.114,0L0.114,-0.7L0.594,-0.7L0.594,-0.636L0.188,-0.636L0.188,-0.387L0.55,-0.387L0.55,-0.324L0.188,-0.324L0.188,-0.064L0.609,-0.064Z" style="fill-rule:nonzero;"/>
                </g>
                <g transform="matrix(12,0,0,12,470.613,376.024)">
                    <path d="M0.699,-0.7L0.699,0L0.638,0L0.188,-0.568L0.188,0L0.114,0L0.114,-0.7L0.175,-0.7L0.626,-0.132L0.626,-0.7L0.699,-0.7Z" style="fill-rule:nonzero;"/>
                </g>
                <g transform="matrix(12,0,0,12,480.369,376.024)">
                    <path d="M0.619,-0.064L0.619,0L0.045,0L0.045,-0.051L0.509,-0.636L0.052,-0.636L0.052,-0.7L0.607,-0.7L0.607,-0.649L0.144,-0.064L0.619,-0.064Z" style="fill-rule:nonzero;"/>
                </g>
            </g>
            <g transform="matrix(0.400671,0,0,2.92403,494.85,-2295.18)">
                <path d="M771.674,502.831C793.875,487.855 811.654,468.831 825.012,445.773C837.8,423.699 845.656,399.335 848.573,372.696C849.158,372.744 862.5,371.494 868.939,371.278C866.07,402.026 857.243,430.009 842.481,455.247C828.308,479.479 809.663,499.651 786.547,515.731L786.274,515.92C780.565,519.915 774.583,523.638 768.338,527.075C763.406,523.028 758.816,518.517 754.543,513.576L754.289,513.267L754.84,512.984C760.709,509.838 766.322,506.458 771.674,502.831ZM850.166,349.72C856.532,349.028 863.151,348.612 870.015,348.499C870.012,354.527 869.8,360.457 869.352,366.262C862.357,366.473 855.679,366.955 849.357,367.702L849.056,367.738C822.655,370.902 801.712,378.755 786.225,391.293C765.499,408.071 755.136,429.29 755.136,454.951C755.136,472.817 759.565,487.497 768.432,498.986C766.28,500.431 764.101,501.833 761.89,503.185C758.042,505.54 751.369,509.203 751.18,509.358C740.79,495.289 735.594,477.15 735.594,454.951C735.594,435.607 740.726,417.842 750.99,401.656C761.255,385.47 776.947,372.541 798.068,362.869C812.795,356.124 830.065,351.732 849.863,349.753L850.166,349.72Z" style="fill:url(#_Linear1);"/>
            </g>
        </g>
    </g>
    <defs>
        <linearGradient id="_Linear1" x1="0" y1="0" x2="1" y2="0" gradientUnits="userSpaceOnUse" gradientTransform="matrix(134.421,0,0,178.575,735.594,437.787)"><stop offset="0" style="stop-color:rgb(0,183,255);stop-opacity:1"/><stop offset="0.5" style="stop-color:rgb(12,112,232);stop-opacity:1"/><stop offset="1" style="stop-color:rgb(13,59,255);stop-opacity:1"/></linearGradient>
    </defs>
</svg>
